<svg xmlns="http://www.w3.org/2000/svg" viewBox="0 0 235.93 214.85"><defs><style>.cls-1{fill:#1ba8b9;}.cls-2{fill:none;stroke:#1ba8b9;stroke-miterlimit:10;stroke-width:5px;}</style></defs><title>inst</title><g id="Layer_2" data-name="Layer 2"><g id="Layer_1-2" data-name="Layer 1"><path class="cls-1" d="M118.37,179.43q-14.19,0-28.38,0a47.93,47.93,0,0,1-38.4-17.93C48,157.08,45.92,152,44,146.76a36.42,36.42,0,0,1-1.84-12.42q0-27.18,0-54.36A38.89,38.89,0,0,1,43,71.57c1.36-6,3.35-11.84,7.06-16.78C59.67,41.92,72.65,35.15,88.76,35c20-.18,39.93-.12,59.89,0a47,47,0,0,1,41.51,25.19,40.45,40.45,0,0,1,4.59,19.4c.07,18.43,0,36.85,0,55.28a39.4,39.4,0,0,1-3.24,16.69c-5.92,12.83-15.61,21.48-29.19,25.71a55.58,55.58,0,0,1-17.09,2.19C136.3,179.39,127.33,179.43,118.37,179.43Zm0-11.79h0c10.25,0,20.51.23,30.76-.06,12.29-.35,21.94-5.91,28.67-16.2a27.62,27.62,0,0,0,4.37-15.2c.07-19.34.19-38.69,0-58C182,67.82,177.29,59.7,169,53.57c-6.6-4.85-14-6.85-22.07-6.83-18.42,0-36.84-.07-55.26.08a52.31,52.31,0,0,0-12.54,1.47C68.61,51,61.4,57.82,57,67.56a29,29,0,0,0-2.24,12.22q0,27.08,0,54.16c0,5.44.71,10.66,3.62,15.48,2.07,3.42,4.15,6.68,7.23,9.37a34.93,34.93,0,0,0,23.54,8.84C98.88,167.69,108.65,167.64,118.41,167.64Z"/><path class="cls-1" d="M120.5,145.28c-10.89-.12-19.38-3-27-8.83A36.57,36.57,0,0,1,84.77,88c6.73-10.49,16.64-16.51,29.11-18.06a40.49,40.49,0,0,1,29.85,7.76A38.17,38.17,0,0,1,155,91.2a33.64,33.64,0,0,1,1.52,29.28c-5.31,13-15.34,21-29.23,23.92C124.65,144.95,121.88,145.11,120.5,145.28ZM118,133.44c12.11-.14,19.79-5.09,24.57-12.64,7.42-11.72,4.24-27.49-8.78-35.25a27.74,27.74,0,0,0-24.9-2.31c-9.36,3.45-15,10.35-17.1,19.93a20,20,0,0,0,1.35,12.88c1.85,4.06,3.95,7.75,7.46,10.69A28,28,0,0,0,118,133.44Z"/><path class="cls-1" d="M150.46,68.4a8.79,8.79,0,1,1,8.71,8.54A8.48,8.48,0,0,1,150.46,68.4Z"/><rect class="cls-2" x="2.5" y="2.5" width="230.93" height="209.85" rx="52.57" ry="52.57"/></g></g></svg>